<?xml version="1.0" standalone="no"?><!DOCTYPE svg PUBLIC "-//W3C//DTD SVG 1.1//EN" "http://www.w3.org/Graphics/SVG/1.1/DTD/svg11.dtd"><svg t="1680876233356" class="icon" viewBox="0 0 1024 1024" version="1.1" xmlns="http://www.w3.org/2000/svg" p-id="9842" xmlns:xlink="http://www.w3.org/1999/xlink" width="200" height="200"><path d="M217.11872 94.67392c50.80064 0 95.81056 31.29856 113.90464 77.71648a421.5296 421.5296 0 0 0-85.67808 56.71424L174.08512 157.8496c-8.7296-8.7296-22.92224-8.7296-31.65184 0s-8.7296 22.92224 0 31.65184l70.4256 70.4256a423.10144 423.10144 0 0 0-66.20672 91.52512 122.25024 122.25024 0 0 1-73.94304-112.36864c0-29.06112 5.1456-101.88288 7.73632-136.69888 34.82112-2.56 107.61216-7.71072 136.67328-7.71072zM947.16416 102.37952c2.59072 34.816 7.73632 107.63776 7.73632 136.69888a122.2656 122.2656 0 0 1-65.56672 108.37504 419.47136 419.47136 0 0 0-69.15072-92.93312l65.024-65.024a22.4 22.4 0 0 0 0-31.65184 22.4 22.4 0 0 0-31.65184 0l-66.432 66.432a419.36896 419.36896 0 0 0-88.74496-56.17152c19.17952-44.02176 62.91456-73.43104 112.14848-73.43104 29.06112 0 101.82144 5.15072 136.63744 7.7056z" fill="#FF4893" p-id="9843"></path><path d="M859.40736 387.0976c24.5504 51.11808 37.0176 106.07104 37.0176 163.26656 0 208.11776-169.30816 377.42592-377.42592 377.42592s-377.45664-169.30816-377.45664-377.42592c0-107.25376 44.9792-204.21632 117.0688-272.98304A377.98912 377.98912 0 0 1 368.01024 204.4928c46.2592-20.3008 97.34656-31.55456 150.9888-31.55456 49.45408 0 97.50528 9.40032 142.80704 27.97056a376.47872 376.47872 0 0 1 111.34976 70.43072 376.0128 376.0128 0 0 1 85.64736 114.57536c0 0.06144 0.03072 0.128 0.09728 0.15872 0.09728 0.28672 0.256 0.54272 0.41472 0.82944l0.09216 0.19456z m-102.20544 289.73568c0-62.98112-51.21536-114.19136-114.19136-114.19136H394.96192c-30.464 0-59.14112 11.86304-80.75264 33.43872-21.5808 21.54496-33.43872 50.2528-33.43872 80.75264 0 62.98112 51.21536 114.19136 114.19136 114.19136h248.04864c62.976 0 114.19136-51.21536 114.19136-114.19136z m-39.41888-286.12608a22.4 22.4 0 0 0 0-31.65184 22.4 22.4 0 0 0-31.65184 0l-15.85664 15.85664-15.85664-15.85664a22.4 22.4 0 0 0-31.65184 0 22.4 22.4 0 0 0 0 31.65184l15.85664 15.85664-15.85664 15.85664a22.4 22.4 0 0 0 0 31.65184 22.2976 22.2976 0 0 0 15.82592 6.5536 22.30784 22.30784 0 0 0 15.82592-6.5536l15.85664-15.85664 15.85664 15.85664a22.2976 22.2976 0 0 0 15.82592 6.5536 22.30784 22.30784 0 0 0 15.82592-6.5536 22.4 22.4 0 0 0 0-31.65184l-15.85664-15.85664 15.85664-15.85664z m-318.40768 0a22.4 22.4 0 0 0 0-31.65184 22.4 22.4 0 0 0-31.65184 0l-15.85664 15.85664-15.88736-15.85664a22.4 22.4 0 0 0-31.65184 0 22.36928 22.36928 0 0 0-0.01024 31.63648l0.01024 0.01024 15.85664 15.85664-15.85664 15.85664a22.36928 22.36928 0 0 0-0.01024 31.63648l0.01024 0.01024a22.2464 22.2464 0 0 0 15.82592 6.5536 22.30784 22.30784 0 0 0 15.82592-6.5536l15.88736-15.85664 15.85664 15.85664a22.2976 22.2976 0 0 0 15.82592 6.5536 22.30784 22.30784 0 0 0 15.82592-6.5536 22.4 22.4 0 0 0 0-31.65184l-15.85664-15.85664 15.85664-15.8464z" fill="#FFB578" p-id="9844"></path><path d="M643.01056 607.39584c38.2976 0 69.43744 31.13984 69.43744 69.43744 0 38.2976-31.13984 69.43744-69.43744 69.43744H394.96192c-38.2976 0-69.43744-31.13984-69.43744-69.43744 0-18.57536 7.22432-35.99872 20.3008-49.10592a69.20192 69.20192 0 0 1 49.13664-20.33152h248.04864z m32.54272 69.24288c0-27.6224-22.4768-50.09408-50.09408-50.09408s-50.09408 22.4768-50.09408 50.09408c0 27.65312 22.4768 50.12992 50.09408 50.12992s50.09408-22.4768 50.09408-50.12992z m-208.72704 0c0-27.6224-22.50752-50.09408-50.12992-50.09408s-50.09408 22.4768-50.09408 50.09408c0 27.65312 22.47168 50.12992 50.09408 50.12992s50.12992-22.4768 50.12992-50.12992z" fill="#FF4893" p-id="9845"></path><path d="M625.4592 671.30368a5.35552 5.35552 0 1 1 0 10.70592 5.35552 5.35552 0 0 1 0-10.70592zM416.70144 671.30368a5.35552 5.35552 0 1 1 0.03072 10.71104 5.35552 5.35552 0 1 1-0.03072-10.71104z" fill="#8B87C1" p-id="9846"></path><path d="M416.70144 626.54464c-27.6224 0-50.09408 22.4768-50.09408 50.09408 0 27.65312 22.47168 50.1248 50.09408 50.1248s50.12992-22.47168 50.12992-50.1248c-0.00512-27.61728-22.50752-50.09408-50.12992-50.09408z m0.03072 55.46496a5.35552 5.35552 0 1 1-0.03584-10.70592 5.35552 5.35552 0 0 1 0.03584 10.70592zM351.86688 374.91712l-15.88736-15.85664a22.4 22.4 0 0 0-31.65184 0l-0.01024 0.01024a22.36928 22.36928 0 0 0 0.01024 31.63648l15.85664 15.85664-15.85664 15.85664-0.01024 0.01024a22.36928 22.36928 0 0 0 0.01024 31.63648c4.34688 4.3776 10.10176 6.5536 15.82592 6.5536s11.4432-2.176 15.82592-6.5536l15.88736-15.85664 15.85664 15.85664c4.3776 4.3776 10.10176 6.5536 15.82592 6.5536s11.4432-2.176 15.82592-6.5536a22.4 22.4 0 0 0 0-31.65184l-15.85664-15.85664 15.85664-15.85664a22.4 22.4 0 0 0 0-31.65184 22.4 22.4 0 0 0-31.65184 0l-15.85664 15.86688z" fill="#4F46A3" p-id="9847"></path><path d="M643.01056 562.6368H394.96192c-30.464 0-59.14112 11.85792-80.75264 33.43872-21.5808 21.54496-33.43872 50.2528-33.43872 80.75264 0 62.98112 51.21536 114.19136 114.19136 114.19136h248.04864c62.98112 0 114.19136-51.21536 114.19136-114.19136s-51.21536-114.19136-114.19136-114.19136z m0 183.63392H394.96192c-38.2976 0-69.43744-31.13984-69.43744-69.43744 0-18.57536 7.22432-35.99872 20.3008-49.10592a69.20192 69.20192 0 0 1 49.13664-20.33152h248.04864c38.2976 0 69.43744 31.13984 69.43744 69.43744 0 38.2976-31.13984 69.43744-69.43744 69.43744z" fill="#4F46A3" p-id="9848"></path><path d="M999.6544 239.0784c0-40.37632-8.94976-154.47552-9.33376-159.30368a22.4 22.4 0 0 0-20.5568-20.5568c-4.85888-0.384-118.8608-9.30304-159.23712-9.30304-67.61472 0-127.68256 40.63232-153.64096 101.30944-44.18048-15.31392-90.4704-23.05024-137.8816-23.05024-51.63008 0-101.15072 9.30304-146.89792 26.37312C346.97728 92.02176 285.94688 49.92 217.11872 49.92c-40.37632 0-154.4448 8.91904-159.26784 9.30304a22.4 22.4 0 0 0-20.5568 20.5568c-0.384 4.82816-9.33888 118.92224-9.33888 159.29856a166.912 166.912 0 0 0 99.68128 152.87808 419.9424 419.9424 0 0 0-30.848 158.40768c0 232.79616 189.4144 422.18496 422.21568 422.18496s422.18496-189.38368 422.18496-422.18496c0-56.55552-10.90048-111.1552-32.45056-162.59584a166.84032 166.84032 0 0 0 90.91584-148.68992z m-351.49824-58.78784c0-1.92 0.256-3.83488 0.73728-5.6576 0.18944-0.73728 0.384-1.50016 0.60928-2.23744-0.22528 0.73728-0.41472 1.50016-0.60928 2.23744-0.48128 1.82272-0.73728 3.7376-0.73728 5.6576v0.03072-0.03072z m-269.17888-4.51072z m-12.40064 24.7808c-0.08192 0.03584-0.14848 0.09216-0.22528 0.128-1.152 0.512-2.36544 0.95744-3.61472 1.28 1.34656-0.35328 2.62144-0.83968 3.84-1.408z m-293.8624 38.51776c0-29.06112 5.1456-101.88288 7.73632-136.69888 34.816-2.56 107.60704-7.7056 136.66816-7.7056 50.80064 0 95.81056 31.29856 113.90464 77.71648a421.64736 421.64736 0 0 0-85.67808 56.71424L174.08512 157.8496c-8.7296-8.7296-22.92224-8.7296-31.65184 0s-8.7296 22.92224 0 31.65184l70.4256 70.4256a423.10144 423.10144 0 0 0-66.20672 91.52512 122.26048 122.26048 0 0 1-73.93792-112.37376z m159.03744 36.7616l0 0z m287.24736 651.95008c-208.11776 0-377.45664-169.30816-377.45664-377.42592 0-107.25376 44.9792-204.21632 117.0688-272.98304A377.98912 377.98912 0 0 1 368.01024 204.4928c46.2592-20.3008 97.34656-31.55456 150.9888-31.55456 49.45408 0 97.50528 9.40032 142.80704 27.97056a21.8368 21.8368 0 0 0 0.22528 0.09216 376.47872 376.47872 0 0 1 111.12448 70.33344 376.0128 376.0128 0 0 1 85.64736 114.57536c0 0.06656 0.03584 0.128 0.09728 0.15872 0.128 0.28672 0.256 0.57344 0.41472 0.82944l0.09728 0.18944c24.5504 51.11808 37.0176 106.07104 37.0176 163.26656-0.00512 208.128-169.30816 377.43616-377.43104 377.43616z m223.95904-708.63872z m113.60256 157.00992z m0.41472-4.07552c0.128-0.70144 0.25088-1.40288 0.44544-2.07872-0.18944 0.67072-0.31232 1.37728-0.44544 2.07872z m-2.24768-38.912l0 0z m11.28448 24.71936c-0.43008 0.30208-0.81408 0.65536-1.21856 0.98816 0.40448-0.3328 0.78848-0.68096 1.21856-0.98816z m-2.33984 1.90464c-0.4096 0.384-0.77312 0.80896-1.152 1.22368 0.37888-0.41472 0.7424-0.83968 1.152-1.22368z m-2.06336 2.2016c-0.32768 0.40448-0.60928 0.8448-0.91136 1.26976 0.30208-0.42496 0.57856-0.86528 0.91136-1.26976z m-1.75104 2.46784c-0.256 0.41984-0.4608 0.8704-0.6912 1.3056 0.2304-0.44032 0.4352-0.88576 0.6912-1.3056z m-1.40288 2.67776c-0.21504 0.4864-0.36864 0.9984-0.54784 1.50528 0.1792-0.50176 0.3328-1.01376 0.54784-1.50528zM784.1792 276.8128c-0.65536-0.12288-1.27488-0.3584-1.91488-0.5376 0.63488 0.1792 1.26464 0.41472 1.91488 0.5376z m-3.95776-1.12128c-0.6656-0.256-1.28-0.62976-1.91488-0.9472 0.63488 0.31744 1.2544 0.6912 1.91488 0.9472z m-3.69664-1.8432z m24.07424-0.384c-0.5376 0.3584-1.12128 0.59392-1.68448 0.90112 0.5632-0.3072 1.15712-0.54784 1.68448-0.90112z m-3.8656 2.05312c-0.7168 0.29184-1.46944 0.45568-2.20672 0.67072 0.73728-0.22016 1.49504-0.384 2.20672-0.67072z m-4.1728 1.24928z m-21.29408-36.53632c0.00512 0 0.00512 0 0 0 0.00512 0 0.00512 0 0 0z m107.70432 135.93088h-0.03072 0.03072z m9.21088 20.46464l0 0z m1.14688-49.17248a419.47136 419.47136 0 0 0-69.15072-92.93312l65.024-65.024a22.4 22.4 0 0 0 0-31.65184 22.4 22.4 0 0 0-31.65184 0l-66.432 66.432a419.54816 419.54816 0 0 0-88.74496-56.17152c19.17952-44.02176 62.91456-73.43104 112.14848-73.43104 29.06112 0 101.82144 5.1456 136.63744 7.7056 2.59072 34.816 7.73632 107.63776 7.73632 136.69888a122.25536 122.25536 0 0 1-65.56672 108.37504z" fill="#4F46A3" p-id="9849"></path><path d="M625.4592 626.54464c-27.6224 0-50.09408 22.4768-50.09408 50.09408 0 27.65312 22.4768 50.1248 50.09408 50.1248s50.09408-22.47168 50.09408-50.1248c0-27.61728-22.47168-50.09408-50.09408-50.09408z m0 55.46496a5.35552 5.35552 0 0 1 0-10.71104 5.3504 5.3504 0 0 1 0 10.71104z" fill="#4F46A3" p-id="9850"></path><path d="M670.34624 374.91712l-15.88736-15.85664a22.4 22.4 0 0 0-31.65184 0l-0.01024 0.01024a22.36928 22.36928 0 0 0 0.01024 31.63648l15.85664 15.85664-15.85664 15.85664-0.01024 0.01024a22.36928 22.36928 0 0 0 0.01024 31.63648c4.34688 4.3776 10.10176 6.5536 15.82592 6.5536s11.4432-2.176 15.82592-6.5536l15.88736-15.85664 15.85664 15.85664c4.3776 4.3776 10.10176 6.5536 15.82592 6.5536s11.4432-2.176 15.82592-6.5536a22.4 22.4 0 0 0 0-31.65184l-15.85664-15.85664 15.85664-15.85664a22.4 22.4 0 0 0 0-31.65184 22.4 22.4 0 0 0-31.65184 0l-15.85664 15.86688z" fill="#4F46A3" p-id="9851"></path></svg>